<?xml version="1.0" encoding="UTF-8" standalone="no"?>
<svg
   xmlns:dc="http://purl.org/dc/elements/1.1/"
   xmlns:cc="http://creativecommons.org/ns#"
   xmlns:rdf="http://www.w3.org/1999/02/22-rdf-syntax-ns#"
   xmlns:svg="http://www.w3.org/2000/svg"
   xmlns="http://www.w3.org/2000/svg"
   viewBox="0 0 377.94666 165.30667"
   height="165.30667"
   width="377.94666"
   xml:space="preserve"
   id="svg2"
   version="1.1"><metadata
     id="metadata8"><rdf:RDF><cc:Work
         rdf:about=""><dc:format>image/svg+xml</dc:format><dc:type
           rdf:resource="http://purl.org/dc/dcmitype/StillImage" /></cc:Work></rdf:RDF></metadata><defs
     id="defs6" /><g
     transform="matrix(1.3333333,0,0,-1.3333333,0,165.30667)"
     id="g10"><g
       transform="scale(0.1)"
       id="g12"><path
         id="path14"
         style="fill:#ffffff;fill-opacity:1;fill-rule:nonzero;stroke:none"
         d="m 617.457,1064.45 c -0.023,0.03 -0.047,0.05 -0.047,0.08 18.34,6.67 67.996,24.59 110.59,39.04 53.352,18.07 125.586,40.23 125.586,40.23 210.594,58.08 443.644,91.83 660.884,90.24 -250.48,14.91 -478.23,0.39 -676.716,-35.58 0,0 -66.422,-10.76 -137.477,-29.15 0,0 -34.293,-9.28 -55.172,-15.12 -20.851,-5.83 -49.507,-14.28 -49.507,-14.28 -20.387,-6.32 -40.254,-12.95 -59.754,-19.77 19.769,-19.52 32.254,-46.31 33.359,-76.05 15.781,6.95 31.86,13.74 48.254,20.36 M 2834.65,409.5 C 2783.11,363.117 2661.94,270.523 2404.73,194.41 2140.97,116.352 1819.96,82.2813 1505.9,82.2813 709.313,82.2813 194.543,315.945 158.699,625.117 c -13.469,116.18 78.192,228.668 230.364,324.707 -26.86,20.188 -44.387,52.026 -45.055,88.036 C 124.328,922.719 0,771.063 0,617.215 0,276.555 609.359,-12.1289 1514.47,0.398438 1829.22,4.75 2092.14,49.8789 2330.33,127.031 c 282.88,91.617 460.6,224.438 504.32,282.469" /><path
         id="path16"
         style="fill:#ffffff;fill-opacity:1;fill-rule:nonzero;stroke:none"
         d="m 456.672,1123.06 c -45.942,0 -83.141,-37.23 -83.141,-83.14 0,-45.893 37.199,-83.119 83.141,-83.119 45.891,0 83.113,37.226 83.113,83.119 0,45.91 -37.222,83.14 -83.113,83.14 M 419.938,414.777 h 78.316 v 487.075 l -78.316,-10.368 z m 337.535,412.231 c -35.895,0 -72.504,-20.731 -92.52,-45.449 -0.691,20.73 -7.586,40.671 -9.652,47.836 l -73.196,-19.129 c 4.137,-22.328 10.368,-49.411 10.368,-98.059 v -297.43 h 77.996 v 299.817 c 18.636,23.121 41.433,35.871 56.625,35.871 10.363,0 20.011,-2.387 25.554,-10.363 6.204,-8.766 8.961,-21.52 8.961,-52.59 V 414.777 h 78.02 v 309.395 c 0,27.082 -2.758,54.211 -18.637,74.129 -13.812,17.554 -35.898,28.707 -63.519,28.707 m 299.517,103.625 c 13.79,0 28.29,-4.778 37.28,-11.942 l 22.08,60.59 c -20.7,15.141 -44.19,21.519 -73.19,21.519 -20.02,0 -41.41,-4.78 -60.051,-19.945 -18.66,-15.929 -38.675,-47.812 -38.675,-108.402 0,-25.527 1.402,-53.422 1.402,-53.422 h -26.934 v -68.566 h 26.934 V 414.777 h 80.064 v 335.688 h 58.69 l 14.5,68.566 h -73.19 v 62.188 c 0,31.094 11.74,49.414 31.09,49.414 m 102.3,-515.856 h 79.37 v 412.231 l -79.37,-10.363 z m 39.34,564.282 c -29,0 -52.46,-23.071 -52.46,-51.778 0,-28.703 22.77,-51.773 51.08,-51.773 28.98,0 52.47,23.07 52.47,51.773 0,28.707 -22.78,51.778 -51.09,51.778 m 304.96,-152.051 c -35.89,0 -72.5,-20.731 -92.52,-45.449 -0.69,20.73 -7.58,40.671 -9.65,47.836 l -73.22,-19.129 c 4.14,-22.328 10.37,-49.411 10.37,-98.059 v -297.43 h 78.02 v 299.817 c 18.63,23.121 41.43,35.871 56.62,35.871 10.37,0 20.02,-2.387 25.56,-10.363 6.23,-8.766 8.96,-21.52 8.96,-52.59 V 414.777 h 78.02 v 309.395 c 0,27.082 -2.76,54.211 -18.64,74.129 -13.81,17.554 -35.9,28.707 -63.52,28.707 m 290.34,3.176 c -40.03,0 -73.17,-17.528 -97.35,-53.399 -25.53,-38.285 -37.27,-89.273 -37.27,-158.648 0,-134.004 52.49,-212.91 144.3,-212.91 42.81,0 80.11,16.742 114.63,54.211 l -31.08,58.203 c -24.17,-25.508 -48.32,-39.887 -76.64,-39.887 -24.17,0 -44.19,13.566 -55.91,38.285 -9.7,20.731 -11.76,44.633 -11.76,71 v 7.981 h 180.18 v 17.527 c 0,88.508 -11.02,137.918 -39.31,174.601 -21.42,27.918 -51.8,43.036 -89.79,43.036 m -51.08,-170.59 c 1.4,71.742 16.59,104.437 51.79,104.437 20.02,0 32.45,-11.152 40.04,-29.496 6.22,-15.953 8.98,-43.031 8.98,-74.941 z m 369.95,170.59 c -102.19,0 -138.09,-112.387 -137.4,-212.047 0.69,-98.922 29,-213.723 136.69,-213.723 105.64,0 139.47,112.41 139.47,215.32 0,137.918 -57.98,210.45 -138.76,210.45 m 53.16,-210.45 c 0,-42.32 0,-143.578 -51.8,-143.578 -55.91,0 -54.54,101.258 -54.54,145.157 0,41.457 0,137.156 52.47,137.156 55.93,0 53.87,-94.887 53.87,-138.735 m 379.9,178.567 c -13.79,17.554 -35.89,28.707 -63.52,28.707 -35.92,0 -72.5,-20.731 -92.52,-45.449 -0.69,20.73 -7.61,40.671 -9.65,47.836 l -73.19,-19.129 c 4.13,-22.328 10.36,-49.411 10.36,-98.059 v -297.43 h 78 v 299.817 c 18.66,23.121 41.43,35.871 56.62,35.871 10.34,0 20.02,-2.387 25.56,-10.363 6.2,-8.766 8.96,-21.52 8.96,-52.59 V 414.777 h 78.02 v 309.395 c 0,27.082 -2.76,54.211 -18.64,74.129" /></g></g></svg>